<?xml version="1.0" encoding="utf-8"?>
<!-- Generator: Adobe Illustrator 16.0.0, SVG Export Plug-In . SVG Version: 6.00 Build 0)  -->
<!DOCTYPE svg PUBLIC "-//W3C//DTD SVG 1.1//EN" "http://www.w3.org/Graphics/SVG/1.1/DTD/svg11.dtd">
<svg version="1.1" xmlns="http://www.w3.org/2000/svg" xmlns:xlink="http://www.w3.org/1999/xlink" x="0px" y="0px" width="720px"
	 height="920px" viewBox="0 0 720 920" enable-background="new 0 0 720 920" xml:space="preserve">
<g id="Layer_2">
	<g id="Layer_3">
	</g>
</g>
<g id="Layer_4">
	<g>
		<ellipse fill="#006838" stroke="#000000" stroke-miterlimit="10" cx="357.563" cy="496.774" rx="284.364" ry="290.637"/>
		<g>
			<path stroke="#000000" stroke-miterlimit="10" d="M574.974,496.773c0,123.365-97.342,223.373-217.411,223.373
				c-120.072,0-217.412-100.008-217.412-223.373c0-123.364,97.339-223.372,217.412-223.372
				C477.632,273.402,574.974,373.409,574.974,496.773z"/>
		</g>
		<ellipse fill="none" cx="356.626" cy="492.577" rx="229.489" ry="230.525"/>
		
			<text transform="matrix(0.9545 0.3618 -0.3518 0.9361 236.8804 747.6084)" fill="#FFFFFF" font-family="'TimesNewRomanPS-BoldMT'" font-size="60.7168">C</text>
		
			<text transform="matrix(1.0061 0.1722 -0.1685 0.9857 285.5288 765.4844)" fill="#FFFFFF" font-family="'TimesNewRomanPS-BoldMT'" font-size="60.7168">O</text>
		
			<text transform="matrix(1.0206 -0.0166 0.0076 1 339.8423 773.8613)" fill="#FFFFFF" font-family="'TimesNewRomanPS-BoldMT'" font-size="60.7168">F</text>
		
			<text transform="matrix(1.0074 -0.1643 0.1608 0.987 383.123 772.9609)" fill="#FFFFFF" font-family="'TimesNewRomanPS-BoldMT'" font-size="60.7168">F</text>
		
			<text transform="matrix(0.967 -0.3268 0.318 0.9481 426.3779 765.5566)" fill="#FFFFFF" font-family="'TimesNewRomanPS-BoldMT'" font-size="60.7168">E</text>
		
			<text transform="matrix(0.8973 -0.4866 0.473 0.8811 471.2744 749.8281)" fill="#FFFFFF" font-family="'TimesNewRomanPS-BoldMT'" font-size="60.7168">E</text>
		<path fill="none" d="M568.557,508.084h15.953c0,0,21.143-4.555,24.814-3.678"/>
		<ellipse fill="none" cx="356.997" cy="498.656" rx="244.323" ry="237.662"/>
		
			<text transform="matrix(0.9951 -0.3475 0.3296 0.9441 253.666 282.1616)" fill="#FFFFFF" font-family="'TimesNewRomanPS-BoldMT'" font-size="62.5968">B</text>
		
			<text transform="matrix(1.0408 -0.1666 0.1581 0.9874 293.4976 267.9292)" fill="#FFFFFF" font-family="'TimesNewRomanPS-BoldMT'" font-size="62.5968">R</text>
		
			<text transform="matrix(1.0539 0.0166 -0.0158 0.9999 338.8677 260.6802)" fill="#FFFFFF" font-family="'TimesNewRomanPS-BoldMT'" font-size="62.5968">E</text>
		
			<text transform="matrix(1.0351 0.1989 -0.1887 0.982 381.208 261.0112)" fill="#FFFFFF" font-family="'TimesNewRomanPS-BoldMT'" font-size="62.5968">V</text>
		
			<text transform="matrix(0.9966 0.3433 -0.3257 0.9455 426.4482 270.3901)" fill="#FFFFFF" font-family="'TimesNewRomanPS-BoldMT'" font-size="62.5968">I</text>
		
			<text transform="matrix(0.9376 0.4816 -0.4569 0.8895 449.7197 277.4717)" fill="#FFFFFF" font-family="'TimesNewRomanPS-BoldMT'" font-size="62.5968">N</text>
		<g>
			<g>
				<path fill="#603913" stroke="#000000" stroke-miterlimit="10" d="M347.347,479.664c-12.26,10.242-38.023,3.506-57.547-15.048
					c-19.521-18.551-25.408-41.895-13.147-52.139c12.261-10.24,38.024-3.503,57.547,15.048
					C353.723,446.079,359.61,469.422,347.347,479.664z"/>
				<g>
					<path d="M335.515,461.733c-5.283,3.263-10.682,4.865-15.313,3.983c-4.689-0.9-8.047-4.499-10.049-10.216
						c-1.291-3.694-3.557-11.921-3.563-11.932l8.909,5.605c1.226,4.008,2.724,7.688,4.979,10.35
						c3.662,4.313,9.156,4.743,14.989,2.183L335.515,461.733z"/>
					<path d="M315.504,449.037c0.003,0.007,0.005,0.011,0.007,0.018l-8.896-5.567l-0.014-0.038
						c-2.183-6.955-5.052-12.925-11.286-13.097c-2.067-0.058-4.306,0.521-6.561,1.667c0.352-0.333,0.701-0.651,1.053-0.96
						c5.426-4.794,11.391-7.152,15.759-4.696c4.382,2.465,6.344,9.144,7.981,15.485C314.171,444.261,314.79,446.699,315.504,449.037
						z"/>
				</g>
			</g>
			<g>
				<path fill="#603913" stroke="#000000" stroke-miterlimit="10" d="M358.465,578.672c-16.806,0.153-30.663-20.339-30.954-45.769
					s13.097-46.17,29.905-46.322c16.804-0.15,30.661,20.34,30.954,45.769C388.661,557.782,375.273,578.521,358.465,578.672z"/>
				<g>
					<path d="M363.365,558.335c-6.368-0.781-11.561-2.855-14.301-6.296c-2.77-3.491-2.511-8.164,0.357-13.581
						c1.854-3.498,6.43-10.923,6.435-10.935l2.305,9.498c-2.14,3.691-3.832,7.305-4.189,10.624
						c-0.58,5.384,3.141,9.011,9.381,10.643L363.365,558.335z"/>
					<path d="M358.269,536.923c-0.004,0.006-0.004,0.012-0.009,0.018l-2.323-9.462l0.02-0.038
						c3.673-6.436,6.093-12.563,1.632-16.447c-1.479-1.289-3.566-2.211-6.097-2.726c0.512-0.034,1.01-0.057,1.504-0.073
						c7.636-0.259,13.819,1.599,15.171,6.04c1.356,4.458-2.271,10.558-5.88,16.216C360.913,532.602,359.519,534.771,358.269,536.923
						z"/>
				</g>
			</g>
			<g>
				<path fill="#603913" stroke="#000000" stroke-miterlimit="10" d="M370.005,481.735c-13.019-9.471-8.935-33.117,9.12-52.815
					c18.053-19.696,43.242-27.986,56.262-18.514c13.015,9.472,8.931,33.118-9.122,52.815
					C408.21,482.921,383.021,491.21,370.005,481.735z"/>
				<g>
					<path d="M388.384,468.913c-4.328-4.235-6.826-8.79-6.457-12.996c0.38-4.262,3.938-7.703,10.033-10.228
						c3.939-1.629,12.79-4.721,12.802-4.727l-5.056,8.61c-4.296,1.613-8.193,3.423-10.854,5.769
						c-4.314,3.806-4.063,8.714-0.442,13.525L388.384,468.913z"/>
					<path d="M399.859,449.559c-0.008,0.003-0.013,0.007-0.019,0.009l5.017-8.593l0.039-0.019c7.45-2.847,13.71-6.172,13.075-11.702
						c-0.21-1.832-1.148-3.733-2.723-5.572c0.416,0.267,0.816,0.533,1.207,0.802c6.052,4.159,9.466,9.114,7.312,13.297
						c-2.161,4.195-9.332,6.813-16.171,9.1C404.997,447.748,402.366,448.618,399.859,449.559z"/>
				</g>
			</g>
		</g>
		<rect x="210.098" y="273.402" fill="none" width="40.498" height="27.697"/>
		<g>
			<path fill="#FFDE17" stroke="#000000" stroke-miterlimit="10" d="M500.426,544.34c0,0,15.56,4.057,26.908-15.617
				c9.779-16.954,11.43-36.718,10.334-35.44c-14.216,16.597-24.619,19-29.904,26.693
				C502.479,527.669,499.127,538.989,500.426,544.34z"/>
			<path fill="#FFDE17" stroke="#000000" stroke-miterlimit="10" d="M516.224,501.371c0,0,16.1-4.751,19.462-17.717
				c3.362-12.964,3.825-30.087,1.632-35.246c0,0-11.485,20.229-16.394,24.145C516.018,476.469,513.589,496.26,516.224,501.371z"/>
			<path fill="#FFDE17" stroke="#000000" stroke-miterlimit="10" d="M519.922,462.11c0,0,13.175-5.838,14.138-18.571
				c0.966-12.731-5.175-33.808-5.223-31.754c-0.119,5.178-10.274,25.497-10.274,25.497S513.087,447.277,519.922,462.11z"/>
			<path fill="#FFDE17" stroke="#000000" stroke-miterlimit="10" d="M516.141,426.42c0,0,8.725-3.892,8.991-18.519
				c0.265-14.627-9.868-27.509-9.868-27.509c-0.414,9.859-5.036,25.282-5.036,25.282S508.48,416.02,516.141,426.42z"/>
			<path fill="#FFDE17" stroke="#000000" stroke-miterlimit="10" d="M511.926,492.552c-0.01,0.183-9.16-0.732-16.093-11.355
				c-6.246-9.571-4.624-28.217-4.624-28.217c2.972,7.908,13.398,16.108,13.398,16.108S513.014,473.655,511.926,492.552z"/>
			<path fill="#FFDE17" stroke="#000000" stroke-miterlimit="10" d="M505.941,394.801c0,0,7.4-5.298,5.171-17.803
				c-2.382-13.332-12.829-22.431-12.829-22.431s-0.333,25.721-0.511,25.72C497.595,380.287,500.04,389.844,505.941,394.801z"/>
			<g>
				<path fill="#FFDE17" stroke="#000000" stroke-miterlimit="10" d="M342.975,637.738l8.566,7.776l-54.392,23.59
					c0,0-11.744,4.035-13.96,3.365c-2.215-0.67,6.151,25.268,6.151,25.268s2.274-8.863,9.941-14.076
					c7.667-5.213,53.922-34.191,53.922-34.191s1.347-2.293,3.731-0.06c2.383,2.232,52.092,33.925,52.092,33.925
					s10.523,6.968,11.18,15.766c3.778-8.033,6.637-25.766,6.637-25.766s-9.582-1.045-11.437-2.617
					c-1.855-1.572-56.494-25.404-56.494-25.404l8.748-7.755l-10.953,5.274c0,0-0.807,1.476-3.638-0.351
					C350.238,640.659,342.975,637.738,342.975,637.738z"/>
				<path fill="#FFDE17" stroke="#000000" stroke-miterlimit="10" d="M372.731,635.698c0,0,12.687,16.513,35.877,13.611
					s47.887-20.229,51.46-23.111c0,0-23.538,1.42-50.488-5.4C402.66,619.048,382.466,626.306,372.731,635.698z"/>
				<path fill="#FFDE17" stroke="#000000" stroke-miterlimit="10" d="M381.948,623.837c0,0,20.116-8.098,24.988-21.463
					c4.876-13.366,2.43-19.873,14.507-34.676c0,0-30.01,14.529-35.587,26.495C381.016,604.575,380.282,605.42,381.948,623.837z"/>
				<path fill="#FFDE17" stroke="#000000" stroke-miterlimit="10" d="M427.81,616.223c0,0,16.097,10.124,33.542,2.915
					c17.447-7.21,38.54-30.258,39.003-33.543c0,0-11.567,4.369-48,9.245C443.031,596.086,427.091,617.452,427.81,616.223z"/>
				<path fill="#FFDE17" stroke="#000000" stroke-miterlimit="10" d="M432.409,603.843c0,0-7.703-10.896-4.389-26.736
					c3.315-15.841,19.893-26.261,23.391-31.993c0,0-4.569,6.63-3.225,34.087C448.598,587.622,432.409,603.843,432.409,603.843z"/>
				<path fill="#FFDE17" stroke="#000000" stroke-miterlimit="10" d="M470.977,584.103c0,0,17.382,8.693,33.526-9.249
					c19.934-22.151,21.484-35.525,21.257-35.374c-16.938,11.239-34.078,17.495-36.872,18.762
					C482.909,560.954,473.528,572.859,470.977,584.103z"/>
				<path fill="#FFDE17" stroke="#000000" stroke-miterlimit="10" d="M471.757,572.191c0,0-10.949-9.763-10.426-23.319
					c0.525-13.558,12-31.815,12-31.815c-0.709,14.871,5.941,30.937,5.939,31.183S481.869,559.351,471.757,572.191z"/>
				<path fill="#FFDE17" stroke="#000000" stroke-miterlimit="10" d="M498.545,533.974c0,0-9.04-4.328-14.127-14.631
					c-5.088-10.303,2.164-35.929,2.246-34.093c0.392,8.878,10.715,22.583,12.019,25.794
					C499.985,514.259,502.104,519.366,498.545,533.974z"/>
				<path fill="#FFDE17" stroke="#000000" stroke-miterlimit="10" d="M514.813,455.094c0,0-10.92-0.066-15.942-6.423
					c-5.024-6.359-8.906-15.648-9.709-24.386c5.728,7.349,17.498,13.583,17.498,13.583S513.643,442.924,514.813,455.094z"/>
				<path fill="#FFDE17" stroke="#000000" stroke-miterlimit="10" d="M509.98,420.877c0,0-7.844,1.76-16.067-4.041
					c-8.223-5.803-11.342-18.479-11.693-19.138c7.069,5.55,17.171,8.815,17.171,8.815S508.635,411.747,509.98,420.877z"/>
				<path fill="#FFDE17" stroke="#000000" stroke-miterlimit="10" d="M500.193,391.15c0,0-4.898,2.436-14.203-0.579
					c-8.547-2.769-14.289-15.536-14.289-15.536c6.634,4.148,17.283,5.198,17.283,5.198S495.983,382.66,500.193,391.15z"/>
				<path fill="#FFDE17" stroke="#000000" stroke-miterlimit="10" d="M492.427,368.667c0,0,5.432-4.241,2.226-15.766
					c-3.205-11.514-14.892-18.827-14.892-18.827c1.712,10.529,2.624,21.465,2.624,21.465S485.524,364.765,492.427,368.667z"/>
				<path fill="#FFDE17" stroke="#000000" stroke-miterlimit="10" d="M486.05,366.163c0,0-2.125,3.045-12.174,1.571
					c-7.008-1.029-14.671-11.43-14.671-11.43c4.518,1.753,16.147,1.988,16.147,1.988S482.716,359.652,486.05,366.163z"/>
				<path fill="#FFDE17" stroke="#000000" stroke-miterlimit="10" d="M475.485,351.308c0,0,4.317-9.425-6.831-15.82
					c-11.15-6.395-33.986-18.203-33.986-18.203c8.645,9.75,24.599,28.83,24.599,28.83S464.736,352.064,475.485,351.308z"/>
				<path fill="#FFDE17" stroke="#000000" stroke-miterlimit="10" d="M336.509,635.233c0,0-11.456,15.135-32.046,13.779
					c-20.591-1.357-38.453-13.382-54.994-23.919c10.828,0.806,51.17-4.703,51.348-4.703
					C300.994,620.392,317.867,619.835,336.509,635.233z"/>
				<path fill="#FFDE17" stroke="#000000" stroke-miterlimit="10" d="M281.757,615.427c0,0-12.395,8.883-32.248,2.846
					c-19.852-6.036-39.837-34.345-39.837-34.345c8.146,3.911,44.607,8.98,44.607,8.98S269.623,595.63,281.757,615.427z"/>
				<path fill="#FFDE17" stroke="#000000" stroke-miterlimit="10" d="M327.61,623.756c0,0,3.837-17.974-1.88-27.05
					c-5.716-9.073-22.938-24.134-36.934-29.725c10.474,15.268,14.522,35.919,14.522,35.919S310.073,616.583,327.61,623.756z"/>
				<path fill="#FFDE17" stroke="#000000" stroke-miterlimit="10" d="M277.215,602.989c0,0,6.438-7.686,5.724-21.66
					c-0.715-13.977-23.751-36.88-23.751-36.88c3.195,19.17,2.634,34.45,2.634,34.45S265.451,595.522,277.215,602.989z"/>
				<path fill="#FFDE17" stroke="#000000" stroke-miterlimit="10" d="M238.979,582.789c0,0-16.372,5.982-33.945-10.066
					c-17.572-16.049-20.3-34.803-20.3-34.803c6.99,3.905,37.53,19.293,37.53,19.293S237.372,569.713,238.979,582.789z"/>
				<path fill="#FFDE17" stroke="#000000" stroke-miterlimit="10" d="M238.253,570.786c0,0,10.25-6.678,10.79-22.617
					c0.54-15.939-11.35-31.874-11.35-31.874c-0.456,4.988-6.478,28.89-6.478,28.89S227.618,552.806,238.253,570.786z"/>
				<path fill="#FFDE17" stroke="#000000" stroke-miterlimit="10" d="M210.187,542.84c0,0-18.645-0.111-26.895-16.105
					c-8.25-15.993-9.729-35.725-9.729-35.725c5.471,5.374,29.665,27.709,29.665,27.709S210.02,526.32,210.187,542.84z"/>
				<path fill="#FFDE17" stroke="#000000" stroke-miterlimit="10" d="M212.382,532.006c0,0,11.844-5.764,14.661-16.35
					c2.815-10.585-2.562-31.736-2.562-31.736c-3.257,10.171-13.031,26.054-13.031,26.054S207.946,516.773,212.382,532.006z"/>
				<path fill="#FFDE17" stroke="#000000" stroke-miterlimit="10" d="M194.91,499.438c0,0-15.343-2.806-20.733-21.904
					c-5.39-19.099,0.187-30.98,0.187-30.98c2.629,5.687,18.916,28.878,18.916,28.878S196.996,477.343,194.91,499.438z"/>
				<path fill="#FFDE17" stroke="#000000" stroke-miterlimit="10" d="M199.225,490.588c0,0,15.035-4.841,17.574-13.619
					s3.439-25.539,3.439-25.539c-3.858,6.718-16.362,18.804-16.362,18.804S199.417,473.413,199.225,490.588z"/>
				<path fill="#FFDE17" stroke="#000000" stroke-miterlimit="10" d="M191.24,460.132c0,0-11.965-3.688-13.635-21.203
					c-1.67-17.515,5.411-28.73,5.411-28.73c1.919,5.598,11.373,28.257,11.373,28.257S196.848,443.071,191.24,460.132z"/>
				<path fill="#FFDE17" stroke="#000000" stroke-miterlimit="10" d="M196.698,453.262c0,0,6.646,2.094,16.109-6.478
					c9.462-8.572,9.91-23.773,9.91-23.773l-17.748,13.042C204.969,436.053,198.194,440.697,196.698,453.262z"/>
				<path fill="#FFDE17" stroke="#000000" stroke-miterlimit="10" d="M195.718,424.246c0,0-9.027-4.821-8.759-19.94
					c0.269-15.121,10.186-25.417,10.186-25.417c1.614,12.174,4.819,25.341,4.819,25.341S203.677,414.76,195.718,424.246z"/>
				<path fill="#FFDE17" stroke="#000000" stroke-miterlimit="10" d="M202.046,419.106c0,0,7.629,2.265,15.923-3.849
					c8.294-6.114,11.922-18.749,11.922-18.749c-3.521,2.311-17.542,8.524-17.542,8.524S204.676,408.767,202.046,419.106z"/>
				<path fill="#FFDE17" stroke="#000000" stroke-miterlimit="10" d="M205.763,392.83c0,0-6.774-4.429-4.237-18.928
					c1.84-10.508,12.822-20.715,12.822-20.715c0.399,7.481,0.2,25.806,0.2,25.806S212.444,389.007,205.763,392.83z"/>
				<path fill="#FFDE17" stroke="#000000" stroke-miterlimit="10" d="M212.264,389.417c0,0,8.503,3.338,16.258-1.711
					c7.755-5.048,12.07-13.898,12.07-13.898c-1.6,0.319-17.523,5.236-17.523,5.236S216.936,380.405,212.264,389.417z"/>
				<path fill="#FFDE17" stroke="#000000" stroke-miterlimit="10" d="M219.857,367.027c0,0-4.708-4.679-1.499-16.61
					c2.362-8.78,14.846-17.744,14.846-17.744c-0.474,4.928-3.242,22.251-3.242,22.251S226.623,364.109,219.857,367.027z"/>
				<path fill="#FFDE17" stroke="#000000" stroke-miterlimit="10" d="M226.086,364.763c0,0,6.191,3.982,14.377,0.991
					c8.187-2.992,12.761-10.689,12.761-10.689c-6.847,1.685-16.35,2.039-16.35,2.039S232.344,357.569,226.086,364.763z"/>
				<path fill="#FFDE17" stroke="#000000" stroke-miterlimit="10" d="M237.185,349.914c0,0,9.49,1.784,16.099-4.71
					c6.61-6.494,23.653-27.963,23.653-27.963l-32.195,16.366C244.741,333.606,234.46,337.94,237.185,349.914z"/>
			</g>
		</g>
	</g>
</g>
</svg>
